<mxfile host="65bd71144e">
    <diagram id="1n4RhiUzNrA5nwGIA8J0" name="User">
        <mxGraphModel dx="479" dy="471" grid="0" gridSize="10" guides="1" tooltips="1" connect="1" arrows="1" fold="1" page="1" pageScale="1" pageWidth="827" pageHeight="1169" math="0" shadow="0">
            <root>
                <mxCell id="0"/>
                <mxCell id="1" parent="0"/>
                <mxCell id="18" value="APRESENTACAO" style="text;html=1;strokeColor=#00FF00;fillColor=none;align=left;verticalAlign=bottom;whiteSpace=wrap;rounded=0;labelPosition=right;verticalLabelPosition=top;" vertex="1" parent="1">
                    <mxGeometry x="280" y="80" width="360" height="120" as="geometry"/>
                </mxCell>
                <mxCell id="19" value="controles" style="text;html=1;strokeColor=#007FFF;fillColor=none;align=left;verticalAlign=top;whiteSpace=wrap;rounded=0;" vertex="1" parent="1">
                    <mxGeometry x="289" y="93" width="216" height="65" as="geometry"/>
                </mxCell>
                <mxCell id="20" value="controle_do_casoDeUso" style="text;html=1;strokeColor=#007FFF;fillColor=none;align=center;verticalAlign=middle;whiteSpace=wrap;rounded=0;" vertex="1" parent="1">
                    <mxGeometry x="339" y="118" width="144" height="32" as="geometry"/>
                </mxCell>
                <mxCell id="21" value="DOMINIO" style="text;html=1;strokeColor=#00FF00;fillColor=none;align=left;verticalAlign=bottom;whiteSpace=wrap;rounded=0;labelPosition=right;verticalLabelPosition=top;" vertex="1" parent="1">
                    <mxGeometry x="286" y="249" width="360" height="120" as="geometry"/>
                </mxCell>
                <mxCell id="22" value="modelos" style="text;html=1;strokeColor=#007FFF;fillColor=none;align=left;verticalAlign=top;whiteSpace=wrap;rounded=0;" vertex="1" parent="1">
                    <mxGeometry x="298" y="263" width="153" height="77" as="geometry"/>
                </mxCell>
                <mxCell id="24" value="casoDeUso" style="text;html=1;strokeColor=#007FFF;fillColor=none;align=left;verticalAlign=top;whiteSpace=wrap;rounded=0;" vertex="1" parent="1">
                    <mxGeometry x="465" y="263" width="169" height="78" as="geometry"/>
                </mxCell>
                <mxCell id="25" value="addConta" style="text;html=1;strokeColor=#007FFF;fillColor=none;align=left;verticalAlign=top;whiteSpace=wrap;rounded=0;" vertex="1" parent="1">
                    <mxGeometry x="475" y="291" width="73" height="27.5" as="geometry"/>
                </mxCell>
                <mxCell id="26" value="conta" style="text;html=1;strokeColor=#007FFF;fillColor=none;align=left;verticalAlign=top;whiteSpace=wrap;rounded=0;" vertex="1" parent="1">
                    <mxGeometry x="314" y="291" width="73" height="27.5" as="geometry"/>
                </mxCell>
                <mxCell id="27" value="contratos" style="text;html=1;strokeColor=#007FFF;fillColor=none;align=center;verticalAlign=middle;whiteSpace=wrap;rounded=0;" vertex="1" parent="1">
                    <mxGeometry x="534" y="112" width="93" height="32" as="geometry"/>
                </mxCell>
            </root>
        </mxGraphModel>
    </diagram>
</mxfile>